<svg viewBox="0 0 32 32" xmlns="http://www.w3.org/2000/svg">
    <path d="M13.1 15.79C11.772 14.51 11 12.35 11 10c0-3.5 1.875-6 5-6s5 2.5 5 6c0 2.35-.772 4.51-2.1 5.79.365.632.672 1.075.954 1.356.488.49 1.067.792 2.26 1.253l.384.147.395.154c.305.121.565.23.815.345 1.837.842 3.292 3.1 3.292 5.455a.5.5 0 0 1-.146.354C25.744 25.964 20.217 27 16 27s-9.743-1.036-10.854-2.146A.5.5 0 0 1 5 24.5c0-2.356 1.455-4.613 3.292-5.455.25-.114.51-.224.815-.345l.395-.154.384-.147c1.193-.46 1.772-.764 2.26-1.253.282-.281.589-.724.954-1.355zm.797.62c-.377.641-.707 1.107-1.043 1.444-.617.617-1.29.97-2.608 1.478l-.385.148-.385.15c-.29.115-.535.218-.768.325-1.423.652-2.611 2.434-2.702 4.314C7.212 25.091 12.238 26 16 26c3.762 0 8.788-.909 9.994-1.73-.09-1.881-1.279-3.663-2.702-4.315-.233-.107-.478-.21-.768-.325a40.036 40.036 0 0 0-.385-.15l-.385-.148c-1.318-.509-1.99-.861-2.608-1.478-.336-.337-.666-.803-1.043-1.444A3.99 3.99 0 0 1 16 17a3.99 3.99 0 0 1-2.103-.59zM16 5c-2.5 0-4 2-4 5 0 3.26 1.644 6 4 6s4-2.74 4-6c0-3-1.5-5-4-5z" fill="#000" ></path>
</svg>